{
  "accessors": [
    {
      "bufferView": 2,
      "componentType": 5126,
      "count": 6294,
      "max": [
        30.635969161987305,
        68.58589935302734,
        33.61363983154297
      ],
      "min": [
        -30.13629913330078,
        -0.4735473692417145,
        -17.615694046020508
      ],
      "type": "VEC3"
    },
    {
      "bufferView": 2,
      "byteOffset": 75528,
      "componentType": 5126,
      "count": 6294,
      "max": [
        0.9999697804450989,
        0.9998508095741272,
        0.9994609355926514
      ],
      "min": [
        -0.9999561905860901,
        -0.99986732006073,
        -0.9997011423110962
      ],
      "type": "VEC3"
    },
    {
      "bufferView": 1,
      "componentType": 5126,
      "count": 6294,
      "max": [
        0.999129593372345,
        0.9912700057029724
      ],
      "min": [
        0.010029971599578857,
        0.0023398399353027344
      ],
      "type": "VEC2"
    },
    {
      "bufferView": 1,
      "byteOffset": 50352,
      "componentType": 5126,
      "count": 6294,
      "max": [
        0.999129593372345,
        0.9912700057029724
      ],
      "min": [
        0.010029971599578857,
        0.0023398399353027344
      ],
      "type": "VEC2"
    },
    {
      "bufferView": 1,
      "byteOffset": 100704,
      "componentType": 5126,
      "count": 6294,
      "max": [
        0.999129593372345,
        0.9912700057029724
      ],
      "min": [
        0.010029971599578857,
        0.0023398399353027344
      ],
      "type": "VEC2"
    },
    {
      "bufferView": 0,
      "componentType": 5125,
      "count": 33951,
      "type": "SCALAR"
    }
  ],
  "asset": {
    "extras": {
      "author": "Jewel the blue birb (https://sketchfab.com/kmorganc1)",
      "license": "CC-BY-4.0 (http://creativecommons.org/licenses/by/4.0/)",
      "source": "https://sketchfab.com/3d-models/sitting-alien-4bd01b8c5d2147dfb66986a30e14a1f2",
      "title": "Sitting Alien"
    },
    "generator": "Sketchfab-15.19.0",
    "version": "2.0"
  },
  "bufferViews": [
    {
      "buffer": 0,
      "byteLength": 135804,
      "name": "floatBufferViews",
      "target": 34963
    },
    {
      "buffer": 0,
      "byteLength": 151056,
      "byteOffset": 135804,
      "byteStride": 8,
      "name": "floatBufferViews",
      "target": 34962
    },
    {
      "buffer": 0,
      "byteLength": 151056,
      "byteOffset": 286860,
      "byteStride": 12,
      "name": "floatBufferViews",
      "target": 34962
    }
  ],
  "buffers": [
    {
      "byteLength": 437916,
      "uri": "scene.bin"
    }
  ],
  "extensionsRequired": [
    "KHR_materials_pbrSpecularGlossiness"
  ],
  "extensionsUsed": [
    "KHR_materials_pbrSpecularGlossiness"
  ],
  "images": [
    {
      "uri": "textures/material_diffuse.png"
    },
    {
      "uri": "textures/material_specularGlossiness.png"
    }
  ],
  "materials": [
    {
      "doubleSided": true,
      "extensions": {
        "KHR_materials_pbrSpecularGlossiness": {
          "diffuseFactor": [
            1.0,
            1.0,
            1.0,
            1.0
          ],
          "diffuseTexture": {
            "index": 0
          },
          "glossinessFactor": 1.0,
          "specularFactor": [
            1.0,
            1.0,
            1.0
          ],
          "specularGlossinessTexture": {
            "index": 1
          }
        }
      },
      "name": "material"
    }
  ],
  "meshes": [
    {
      "name": "Object_0",
      "primitives": [
        {
          "attributes": {
            "NORMAL": 1,
            "POSITION": 0,
            "TEXCOORD_0": 2,
            "TEXCOORD_1": 3,
            "TEXCOORD_2": 4
          },
          "indices": 5,
          "material": 0,
          "mode": 4
        }
      ]
    }
  ],
  "nodes": [
    {
      "children": [
        1
      ],
      "matrix": [
        0.31263467669487,
        0.0,
        0.0,
        0.0,
        0.0,
        6.94188432725773e-17,
        -0.31263467669487,
        0.0,
        0.0,
        0.31263467669487,
        6.94188432725773e-17,
        0.0,
        0.0,
        0.0,
        0.0,
        1.0
      ],
      "name": "Sketchfab_model"
    },
    {
      "children": [
        2
      ],
      "name": "root"
    },
    {
      "children": [
        3
      ],
      "matrix": [
        1.0,
        0.0,
        0.0,
        0.0,
        0.0,
        2.220446049250313e-16,
        1.0,
        0.0,
        0.0,
        -1.0,
        2.220446049250313e-16,
        0.0,
        0.0,
        0.0,
        0.0,
        1.0
      ],
      "name": "GLTF_SceneRootNode"
    },
    {
      "children": [
        4
      ],
      "name": "root_0"
    },
    {
      "children": [
        5
      ],
      "matrix": [
        0.07667779177427292,
        0.0,
        0.0,
        0.0,
        0.0,
        0.07667779177427292,
        0.0,
        0.0,
        0.0,
        0.0,
        0.07667779177427292,
        0.0,
        -0.14951850473880768,
        -0.29668933153152466,
        -2.131514549255371,
        1.0
      ],
      "name": "node_id126_1"
    },
    {
      "mesh": 0,
      "name": "Object_5"
    }
  ],
  "samplers": [
    {
      "magFilter": 9729,
      "minFilter": 9987,
      "wrapS": 10497,
      "wrapT": 10497
    }
  ],
  "scene": 0,
  "scenes": [
    {
      "name": "Sketchfab_Scene",
      "nodes": [
        0
      ]
    }
  ],
  "textures": [
    {
      "sampler": 0,
      "source": 0
    },
    {
      "sampler": 0,
      "source": 1
    }
  ]
}
